{"title":"Millenium 3, The Girl Who Kicked the Hornet's Nest 2009 ISO Kla","uid":6693296,"size":4693834556,"categoryP":"video","categoryS":"movies_dvdr","magnet":"?xt=urn:btih:d2561a9448e2199f482e09db239b15be5afe42dd&amp;dn=Millenium+3%2C+The+Girl+Who+Kicked+the+Hornet%5C%27s+Nest+2009+ISO+Kla&amp;tr=udp%3A%2F%2Ftracker.openbittorrent.com%3A80&amp;tr=udp%3A%2F%2Fopen.demonii.com%3A1337&amp;tr=udp%3A%2F%2Ftracker.coppersurfer.tk%3A6969&amp;tr=udp%3A%2F%2Fexodus.desync.com%3A6969","seeders":0,"leechers":0,"uploader":"Klambake","files":-1,"time":1316685080,"description":"With: Michael Nyqvist, Noomi Rapace and Michalis Koutsogiannakis\n\nLisbeth Salander wordt zwaar gewond naar het ziekenhuis gebracht waarna zij wordt beschuldigd van een drievoudige moord. Blomkvist probeert politie en aanklagers te overtuigen van haar onschuld. Hij gaat op onderzoek uit naar het verleden van Lisbeth en ontdekt een samenzwering van het allerhoogste plan. Samen gaan ze op jacht naar gerechtigheid en de waarheid.\n\nLisbeth is recovering in a hospital and awaiting trial for three murders when she is released. Mikael must prove her innocence, but Lisbeth must be willing to share the details of her sordid experiences with the court. \n\nComplete with menu and extra's Dutch subs yes/no\n\n------------------ Dutch Friends ------------------\nYou can find my Friends at: http://www.Film-Test.nl \n------ They got my dutchs subs ---- and more ------\n\nGeneral:\n\nComplete name                    : VTS_02_1.VOB\nFormat                           : MPEG-PS\nFile size                        : 1 024 MiB\nDuration                         : 32mn 8s\nOverall bit rate                 : 4 455 Kbps\n\nVideo:\n\nFormat                           : MPEG Video\nFormat version                   : Version 2\nFormat profile                   : Main@Main\nFormat settings, BVOP            : Yes\nFormat settings, Matrix          : Default\nDuration                         : 32mn 8s\nBit rate mode                    : Variable\nBit rate                         : 3 919 Kbps\nWidth                            : 720 pixels\nHeight                           : 576 pixels\nDisplay aspect ratio             : 16:9\nFrame rate                       : 25.000 fps\nStandard                         : PAL\nColor space                      : YUV\nChroma subsampling               : 4:2:0\nBit depth                        : 8 bits\nBits/(Pixel*Frame)               : 0.378\nStream size                      : 901 MiB (88%)\n\nAudio:\n\nFormat                           : AC-3\nFormat/Info                      : Audio Coding 3\nMode extension                   : CM (complete main)\nDuration                         : 32mn 7s\nBit rate mode                    : Constant\nBit rate                         : 448 Kbps\nChannel(s)                       : 6 channels\nChannel positions                : Front: L C R, Side: L R, LFE\nSampling rate                    : 48.0 KHz\nBit depth                        : 16 bits\nVideo delay                      : -6ms\nStream size                      : 103 MiB (10%)\n\n\n","torrent":{"xt":"urn:btih:d2561a9448e2199f482e09db239b15be5afe42dd","amp;dn":"Millenium+3%2C+The+Girl+Who+Kicked+the+Hornet%5C%27s+Nest+2009+ISO+Kla","amp;tr":["udp%3A%2F%2Ftracker.openbittorrent.com%3A80","udp%3A%2F%2Fopen.demonii.com%3A1337","udp%3A%2F%2Ftracker.coppersurfer.tk%3A6969","udp%3A%2F%2Fexodus.desync.com%3A6969"],"infoHash":"d2561a9448e2199f482e09db239b15be5afe42dd","infoHashBuffer":{"type":"Buffer","data":[210,86,26,148,72,226,25,159,72,46,9,219,35,155,21,190,90,254,66,221]},"announce":[],"urlList":[]}}